<?xml version="1.0" encoding="UTF-8"?> <svg xmlns="http://www.w3.org/2000/svg" id="Camada_1" data-name="Camada 1" viewBox="0 0 496.9546 151.092"><defs><style>.cls-1{fill:#e1b4ae;}.cls-2{fill:#aec2d1;}.cls-3{fill:#c9592c;}.cls-4{fill:#e08d98;}</style></defs><title>ppestudio_logo_horizontal</title><path class="cls-1" d="M105.8939,76.0643c.4688,7.75-2.1285,15.0137-4.0585,22.2632-2.698,10.1342-6.2462,20.0651-9.4637,30.0734-1.3,4.0439-4.2166,7.0844-7.1907,10.0585a4.0684,4.0684,0,0,1-4.01,1.1393c-14.9542-3.1078-30.0443-5.64-44.3776-11.081C30.5472,126.1469,25.378,122.32,19.9467,118.8a36.8544,36.8544,0,0,0-3.9213-2.6934,7.1371,7.1371,0,0,1-4.2442-6.8249c-.204-7.7868-.2842-15.5763-.405-23.365-.0079-.51.1054-1.0238.0826-1.5328-.5441-12.1308,2.4645-23.8638,4.5369-35.6891,1.2564-7.1695,2.847-14.2952,4.5666-21.3793,1.1979-4.9353,4.0892-9.1423,7.3069-13.1393a5.4158,5.4158,0,0,1,4.4871-2.0194c6.1856-.1963,12.3623-.6343,18.5466-.8856a7.6072,7.6072,0,0,1,3.4561.5674c8.0531,3.8649,16.0186,7.8944,24.0754,11.752C86.2123,27.3144,91.0867,33.6442,95.88,40.2157c5.3259,7.3022,6.84,15.7258,8.5879,24.09C105.2734,68.1627,105.4384,72.1409,105.8939,76.0643Z"></path><path class="cls-2" d="M465.025,48.4219c-4.1734,1.6857-8.2353.8815-12.2719-.5621q-3.63-1.2979-6.2487,2.3091a31.7694,31.7694,0,0,0-4.086,7.4234,64.0967,64.0967,0,0,0-3.25,31.4409c.9757,7.1736,2.6058,13.9367,6.7409,17.891,4.548,4.3494,9.3415,7.8542,14.8968,7.3141,3.6346-.6227,7.275-1.1707,10.9-1.9162a5.7523,5.7523,0,0,0,2.9213-1.5769c2.6841-2.7316,5.3247-5.59,7.8883-8.6062a14.8728,14.8728,0,0,0,2.9878-8.5073A58.5638,58.5638,0,0,0,483.44,71.9108c-1.6889-5.3633-3.5637-10.5748-5.36-15.85-.8224-2.416-1.8738-4.7163-3.4806-5.6064C471.517,48.7465,468.2856,47.1049,465.025,48.4219Z"></path><path d="M99.75,58.0349c-.21,1.5848-.74,3.276-.8444,4.8608-.4234,5.92-2.7485,11.1005-4.97,16.3846-1.4783,3.276-3.3824,6.131-6.9754,7.3988-2.5356.74-3.2759,3.0655-3.3824,5.3906-.3169,3.4889-.3169,6.9778-.5275,10.4643-.1064,2.3251-.1064,4.7567-.3193,7.1882-.2105,1.7977-.738,2.3252-2.5356,2.7486-1.4807.3169-2.9591.5274-4.44.74-1.5847.21-2.7485-.53-2.8526-2.1146a24.26,24.26,0,0,1,.1041-2.7485c.317-7.3988.8468-14.7976,1.1638-22.1963.3169-8.88.4234-17.8631.6339-26.7425.1064-5.6023,0-11.2046,0-17.3356,5.497-1.48,11.0981-2.0082,16.2782-.1053,6.4479,2.3252,8.88,5.0737,8.9836,11.5216C100.0673,54.9694,99.8568,56.45,99.75,58.0349Z"></path><path d="M56.6986,58.0349c-.21,1.5848-.74,3.276-.8444,4.8608-.4234,5.92-2.7486,11.1005-4.97,16.3846-1.4783,3.276-3.3824,6.131-6.9754,7.3988-2.5356.74-3.276,3.0655-3.3824,5.3906-.317,3.4889-.317,6.9778-.5275,10.4643-.1064,2.3251-.1064,4.7567-.3193,7.1882-.2105,1.7977-.738,2.3252-2.5356,2.7486-1.4807.3169-2.9591.5274-4.44.74-1.5848.21-2.7485-.53-2.8526-2.1146a24.26,24.26,0,0,1,.1041-2.7485c.3169-7.3988.8468-14.7976,1.1637-22.1963.317-8.88.4234-17.8631.634-26.7425.1064-5.6023,0-11.2046,0-17.3356,5.497-1.48,11.0981-2.0082,16.2782-.1053,6.4479,2.3252,8.88,5.0737,8.9835,11.5216C57.0155,54.9694,56.805,56.45,56.6986,58.0349Z"></path><path d="M155.0523,105.28a1.7908,1.7908,0,0,1-1.7458,1.6532,24.4845,24.4845,0,0,1-5.1469.4607,83.1263,83.1263,0,0,0-17.1824,1.6532,27.4189,27.4189,0,0,1-5.515.183c-.6415,0-1.2852-.5511-2.1118-.9171-.0925-1.5628-.2755-3.1256-.2755-4.6863.09-6.8.183-13.51,1.3777-20.2175.2755-1.7458.183-3.4916.3681-5.1448.2755-5.5129.6415-10.9354,1.01-16.4483l1.1022-16.4483c.4606-.1841.9191-.6436,1.47-.6436,5.0544,0,10.0162-.0915,15.0706.0925,2.665.0915,3.216.9181,3.3086,3.4916,0,1.93-.183,2.7564-1.5628,5.4214-2.0213.6426-4.5012-.6436-6.8906,1.1022-1.47,6.1576-.9192,12.8652-1.9309,19.2973a6.785,6.785,0,0,0,.6436,2.2969c2.2064-.1831,3.86-.3681,5.6055-.4586,2.2064,0,3.216.6416,3.86,2.665a14.56,14.56,0,0,1,.8267,3.8576c.183,2.0234-.8267,3.216-2.94,3.4011a14.1685,14.1685,0,0,1-3.3991-.2756,21.8981,21.8981,0,0,0-7.3512-.0925,26.0475,26.0475,0,0,0-2.0234,11.3939,1.89,1.89,0,0,0,2.2989,2.0214,15.2074,15.2074,0,0,0,2.9405-.3661,57.4,57.4,0,0,1,16.3558.8267,4.8455,4.8455,0,0,1,1.3777.4585C155.42,101.6037,155.1428,103.4421,155.0523,105.28Z"></path><path d="M210.2339,62.008c-1.8363.8267-3.5821,1.6554-5.42,2.3894-1.6553.6437-2.665.1831-2.9405-1.5627a15.71,15.71,0,0,0-2.7575-6.34c-2.48,1.01-3.033,1.47-3.3086,3.3086a11.7009,11.7009,0,0,0-.09,5.0523c1.2851,4.7788,2.2968,9.4651,3.6746,14.1514a112.6769,112.6769,0,0,1,4.1352,21.2272,11.9765,11.9765,0,0,1-4.4108,10.4768,7.1447,7.1447,0,0,1-4.5937,2.1118c-2.7575.2755-5.513.5511-8.2705.7361-3.033.2756-5.2373-1.0117-7.1682-3.3085a25.4632,25.4632,0,0,1-3.6746-6.9832,37.2251,37.2251,0,0,1-2.5724-12.2226c-.0926-1.6533.366-2.2044,1.9288-2.48l5.4224-.8267a1.9313,1.9313,0,0,1,2.2044,1.1948c.368,1.1947.6436,2.2968.9191,3.4915l1.6533,6.8907A6.5715,6.5715,0,0,0,187.261,102.9a1.9283,1.9283,0,0,0,2.9405-.7341,2.44,2.44,0,0,0,.2776-1.1042,46.6726,46.6726,0,0,0-.2776-5.1449c-1.5608-9.3726-3.3065-18.6547-4.8693-27.9347a37.47,37.47,0,0,1,.5511-16.9079c1.47-5.2374,4.8713-9.0056,10.2917-10.3833a8.0759,8.0759,0,0,1,7.1683,1.3777,13.4947,13.4947,0,0,1,5.5129,7.9034c.7361,3.4916,1.2872,6.9822,1.8383,10.4737A5.8264,5.8264,0,0,1,210.2339,62.008Z"></path><path d="M259.9,53.968c-3.216.183-6.3416.46-9.4651.7351-.7341.0915-1.5628.2756-2.3894.46a9.7647,9.7647,0,0,0-.9192,4.2257c-.183,2.5724-.2755,5.2374-.2755,7.8119A94.6382,94.6382,0,0,1,246.3,77.492c-.3681,3.3065-.2756,6.8-.3681,10.1992-.0905,4.3183-.2756,8.729-.2756,13.0493,0,1.6532.1851,3.399.2756,5.0523.0925,1.7458.2755,3.4936-1.01,5.0544a28.8454,28.8454,0,0,1-8.4535.185,1.5526,1.5526,0,0,1-1.2872-1.7458.548.548,0,0,1,.0925-.368c1.5607-5.6055,1.6533-11.394,1.9288-17.1845.3681-6.4321,1.1947-12.7716,1.5628-19.2037.2755-4.5033.183-9.0066.183-13.4173a11.3585,11.3585,0,0,0-.4585-2.2969c-2.7575-.2756-5.33-.5511-7.9024-.7352a14.1852,14.1852,0,0,1-1.9308-.367,2.6953,2.6953,0,0,1-2.48-2.665c-.0926-3.032,0-5.9725,0-8.913a8.2813,8.2813,0,0,1,5.5129-1.3787c3.3086,0,6.5246.0915,9.8311.2755,3.4012.2756,6.8.5511,10.2013,1.0107a20.3177,20.3177,0,0,0,7.0757,0,18.6953,18.6953,0,0,1,3.2161,0,13.6417,13.6417,0,0,1,.4585,1.8383c.0926,1.7458.0926,3.4.1851,5.1459C262.6576,53.6925,262.4725,53.8755,259.9,53.968Z"></path><path d="M362.4408,74.3831a100.0945,100.0945,0,0,1-4.5032,12.4035,48.734,48.734,0,0,1-4.1352,6.8927l-7.2588,10.4748c-1.6532,2.482-4.1352,3.86-6.7076,5.0544-1.5628.7361-2.94.0925-3.1256-1.5608a47.19,47.19,0,0,1-.4585-5.0543c-.0926-2.0214,0-3.9522,0-5.9736h-.4586c.4586-6.064,1.01-12.13,1.47-18.1941.366-3.9522.7341-7.9023,1.01-11.8545.3681-6.4321.7362-12.7716,1.1947-19.1122a2.91,2.91,0,0,1,4.1352-2.7565c2.0214.7351,4.0427,1.2862,6.064,2.2054,6.1566,2.6639,11.12,6.7991,13.0493,13.5993A25.4284,25.4284,0,0,1,362.4408,74.3831Z"></path><path d="M315.792,59.7909c-.3681,4.4108-.9192,8.729-1.2872,13.0472-.7362,7.1682-1.2873,14.3365-2.1139,21.5027a22.771,22.771,0,0,1-2.0213,8.0874c-3.3086,6.5246-9.5556,9.4651-16.5409,7.5342a48.8079,48.8079,0,0,1-5.5129-2.1138,16.27,16.27,0,0,1-9.28-11.8525,32.2087,32.2087,0,0,1-1.1042-7.0757c0-7.5363.1851-14.9781.3681-22.4219.183-6.1565.5511-12.4046.7361-18.5621a13.217,13.217,0,0,0-.4606-2.7565,10.41,10.41,0,0,1,10.9354-.367,13.3325,13.3325,0,0,1,.4586,2.7564c0,4.6863,0,9.2811-.0905,13.9674-.1851,8.4534-.0925,16.9069.4585,25.3623a19.9768,19.9768,0,0,0,2.2969,7.5343c1.47,2.9405,3.5841,4.6863,7.1683,4.2277a7.1616,7.1616,0,0,0,1.7458-3.7691,57.64,57.64,0,0,0,2.5724-15.3441c0-2.7575.3681-5.6055.4606-8.4555.183-4.2257.183-8.4534.2755-12.6812,0-3.8576,0-7.81.09-11.7609,0-1.47.7362-2.2054,2.1139-1.93,2.85.6436,5.881.1841,8.731,1.7458A64.6982,64.6982,0,0,1,315.792,59.7909Z"></path><path d="M302.8845,34.7211l.23.2893a24.2968,24.2968,0,0,1,2.1359,3.014c.5747,1.1468-.4772.8506-.7268,1.3326a8.7818,8.7818,0,0,1-2.8474,3.0124,1.4476,1.4476,0,0,0-.5.5852c-.5416,1.6573-2.0951,2.1352-3.0939,3.3079-.1151.0913-.3439.0813-.5483.1515-1.7392-1.1619-2.9339-3.04-4.3339-4.5671a7.8265,7.8265,0,0,1-.7807-1.5472,6.7682,6.7682,0,0,0,1.3933.0252c.32-.1616.5-.5852.7283-.862a58.1226,58.1226,0,0,1,6.6278-5.734C301.6468,33.3489,301.9675,33.566,302.8845,34.7211Z"></path><path d="M469.8414,74.6449c-.183,3.4916-.3681,6.9832-.6436,10.4768-.4586,7.4417-3.031,14.2419-6.6151,20.674a9.6891,9.6891,0,0,1-6.1565,5.0544,3.86,3.86,0,0,1-3.86-.6437,27.4388,27.4388,0,0,1-3.4011-3.0309c-4.9619-5.9736-8.3609-12.6812-9.0045-20.5835a70.595,70.595,0,0,1,3.4011-29.6827c1.1022-3.215,2.3873-6.34,4.7768-8.82a22.2972,22.2972,0,0,1,5.881-4.2268,5.6494,5.6494,0,0,1,6.8.3681c3.86,2.7565,6.8,5.9725,7.8119,10.8429C470.0265,61.5052,470.302,63.251,469.8414,74.6449Z"></path><path class="cls-3" d="M411.4636,14.6364a1.5329,1.5329,0,0,0-.7233-1.4592c-1.74-1.0107-3.5068-1.67-5.44-.0888A1.1945,1.1945,0,0,1,403.5,13a5.56,5.56,0,0,0-1.94-1.1454,2.4122,2.4122,0,0,0-2.576.7386,3.2569,3.2569,0,0,0-.5295,3.9546,3.3015,3.3015,0,0,0,.9293,1.0106,12.7023,12.7023,0,0,0,1.84,1.0905c.5277.2559.7353.7461.6676,1.6249-.0907,1.18-.1365,2.3606-.2124,3.5409-.3192,4.9684-.7655,13.4769-1.1095,18.4452-.0619.8939-.3247,5.7742.1111,6.17.5834.53,1.2545-2.3688,1.9233-1.6557.3858-.5266.982-5.5695.9033-6.2973a14.167,14.167,0,0,1-.09-2.0117c.0636-1.798.1837-3.6.2568-5.3988a85.2522,85.2522,0,0,1,1.42-12.8c.3576-1.8432.6119-1.8533,1.5379-1.8267,1.432.0413,2.7834-.8767,4.0895-1.9248A2.3264,2.3264,0,0,0,411.4636,14.6364Z"></path><path class="cls-4" d="M422.5046,34.2309c.0023-.982.0978-2.0856-.7642-2.8189a7.9781,7.9781,0,0,0-1.6085,1.191c-4.3749,5.0928-7.7375,11.3195-10.7019,18.6006-.05-1.032-.123-1.5592-.0934-2.0865.1554-2.7631.404-5.529.4928-8.2882q.1864-5.7934.1706-11.5762c-.0032-1.2566.15-2.8975-1.109-3.2114-1.1866-.2957-1.7009,1.0957-2.2534,2.2392A39.4736,39.4736,0,0,0,403.46,39.74c-.3995,2.6945-.8445,5.3808-1.2691,8.0705a9.0248,9.0248,0,0,1-.5763-2.6738c-.4266-5.038-.8773-10.0705-1.235-15.1256a21.6546,21.6546,0,0,0-1.5924-6.7508c-.268-.6549-.7991-1.361-1.2926-1.4409-.3155-.0513-.9581.9192-1.15,1.5763a59.3048,59.3048,0,0,0-1.57,6.3735c-.7224,4.1359.0269,8.1455.1345,12.2011.0961,3.625-.3094,8.174-.4367,12.3212q-.5539-2.7435-1.1338-5.4742a32.4763,32.4763,0,0,0-7.7871-15.716,15.9194,15.9194,0,0,0-2.6415-1.9452c-.312.4269-.4856.5669-.5485.7651-1.1637,3.6663-1.71,7.34-.6727,11.0386a17.877,17.877,0,0,1,.5906,2.6426c.4579,3.7349,1.73,6.9614,2.7918,10.3135,1.385,4.3717,3.5308,8.0391,5.39,11.9745a32.9835,32.9835,0,0,1,2.8252,7.1888c1.0489,4.9391,1.8532,10.0364,2.4309,15.1739.7863,6.9929,1.2565,14.0875,1.8877,21.1313a21.3181,21.3181,0,0,0,.47,2.3581c1.729-.2492,3.2538-.4552,4.5433-2.0091.8345-1.0057.8745-1.4614.4686-2.8532a11.9889,11.9889,0,0,1-.5306-2.6521c-.1863-3.275-.3644-6.5576-.4135-9.8554a82.0405,82.0405,0,0,1,.8241-15.8211A23.2458,23.2458,0,0,1,404.31,75.36a28.0117,28.0117,0,0,1,6.9166-9.9651c3.0777-2.66,5.2282-6.56,7.2808-10.5466a26.2631,26.2631,0,0,0,2.1047-5.5918A62.8323,62.8323,0,0,0,422.5046,34.2309Z"></path><path d="M408.0971,50.0534c-.551,9.096.1851,18.1026-.183,27.1071-.185,5.2374-.6436,10.5673-1.0117,15.8047-.183,4.5033-.5511,9.0066.5511,13.4173.4606,1.7458-.366,2.48-2.1118,2.5724-1.47,0-2.94.183-4.5033.183-1.0117.0926-2.0213,0-3.216,0-.1851-1.1021-.2756-2.0213-.3681-2.8479-.0925-2.665-.0925-5.4225-.2755-8.0874a178.5023,178.5023,0,0,1,0-18.56c.2755-8.27.183-16.5409.0925-24.8113,0-2.7565.2755-5.4214-.5511-8.0864a1.7047,1.7047,0,0,1,1.9288-1.93c2.3894.0925,4.7788.2766,7.1683.46,1.7457.0925,2.2968.8276,2.48,2.5734A17.5256,17.5256,0,0,1,408.0971,50.0534Z"></path></svg> 