<svg fill="none" height="24" viewBox="0 0 24 24" width="24" xmlns="http://www.w3.org/2000/svg"><path clip-rule="evenodd" d="m6.71169 3.97081c3.51851-.3146 7.05811-.3146 10.57661 0l1.5174.13567c1.5123.13522 2.7343 1.2906 2.9539 2.79303.4945 3.38229.4945 6.81859 0 10.20089-.2196 1.5025-1.4416 2.6578-2.9539 2.7931l-1.5174.1356c-3.5185.3146-7.0581.3146-10.57661 0l-1.51734-.1356c-1.51237-.1353-2.73432-1.2906-2.95397-2.7931-.4945-3.3823-.4945-6.8186 0-10.20089.21965-1.50243 1.4416-2.65781 2.95397-2.79303zm-.85612 2.86881c-.23242-.12516-.51353-.1189-.74016.01646-.22663.13537-.36541.37991-.36541.64389v9.50003c0 .4142.33579.75.75.75s.75-.3358.75-.75v-8.24437l5.3944 2.90467c.222.1196.4892.1196.7112 0l5.3944-2.90467v8.24437c0 .4142.3358.75.75.75s.75-.3358.75-.75v-9.50003c0-.26398-.1388-.50852-.3654-.64389-.2266-.13536-.5077-.14162-.7402-.01646l-6.1444 3.30858z" fill="#000" fill-rule="evenodd"/></svg>